mtllib cmn_obj_fan_SD.mtl

v -3.343262 -1.941406 -7.508789
v 0.000000 0.000000 -9.989258
v 0.000000 -1.941406 -8.219727
v -4.062988 0.000000 -9.125488
v -6.108398 -1.941406 -5.500000
v -7.423340 0.000000 -6.684082
v -7.817383 -1.941406 -2.540039
v -9.500000 0.000000 -3.086914
v -8.174316 -1.941406 0.859375
v -9.934570 0.000000 1.043945
v -7.118164 -1.941406 4.109863
v -8.650879 0.000000 4.994629
v -4.831543 -1.941406 6.649902
v -5.871582 0.000000 8.081543
v -1.708984 -1.941406 8.040039
v -2.076660 0.000000 9.770996
v 1.708984 -1.941406 8.040039
v 2.076660 0.000000 9.770996
v 4.831543 -1.941406 6.649902
v 5.871582 0.000000 8.081543
v 7.118164 -1.941406 4.109863
v 8.650879 0.000000 4.994629
v 8.174316 -1.941406 0.859375
v 9.934570 0.000000 1.043945
v 7.817383 -1.941406 -2.540039
v 9.500000 0.000000 -3.086914
v 6.108398 -1.941406 -5.500000
v 7.423340 0.000000 -6.684082
v 3.343262 -1.941406 -7.508789
v 4.062988 0.000000 -9.125488
v 0.000000 -1.941406 -8.219727
v 0.000000 0.000000 -9.989258
v 0.000000 1.941406 -8.219727
v -3.343262 1.941406 -7.508789
v -6.108398 1.941406 -5.500000
v -7.817383 1.941406 -2.540039
v -8.174316 1.941406 0.859375
v -7.118164 1.941406 4.109863
v -4.831543 1.941406 6.649902
v -1.708984 1.941406 8.040039
v 1.708984 1.941406 8.040039
v 4.831543 1.941406 6.649902
v 7.118164 1.941406 4.109863
v 8.174316 1.941406 0.859375
v 7.817383 1.941406 -2.540039
v 6.108398 1.941406 -5.500000
v 3.343262 1.941406 -7.508789
v 0.000000 1.941406 -8.219727
v 1.710449 0.906250 -1.710449
v 0.000000 1.751953 -1.673340
v 1.183594 1.751953 -1.183594
v 0.000000 0.906250 -2.418945
v 1.710449 -0.906250 -1.710449
v 0.000000 -0.906250 -2.418945
v 1.208008 -1.692383 -1.208008
v 0.000000 -1.692383 -1.708008
v 0.000000 -5.410156 -0.772949
v -1.208008 -1.692383 -1.208008
v -0.772949 -5.410156 0.000000
v -1.708008 -1.692383 0.000000
v -1.208008 -1.692383 1.208008
v -1.710449 -0.906250 1.710449
v 0.000000 -0.906250 2.418945
v 0.000000 0.906250 2.418945
v 1.710449 0.906250 1.710449
v 1.183594 1.751953 1.183594
v 1.673340 1.751953 0.000000
v 2.418945 0.906250 0.000000
v 1.673340 1.751953 0.000000
v 2.418945 -0.906250 0.000000
v 1.708008 -1.692383 0.000000
v 0.772949 -5.410156 0.000000
v 0.924805 1.158203 11.096191
v 1.848633 -1.207031 8.833008
v 1.824707 1.161621 8.833008
v 0.891602 -1.204590 11.069824
v -0.922363 1.158203 11.096191
v -0.889160 -1.204590 11.069824
v -1.846191 -1.207031 8.833008
v -0.676758 -4.817871 9.245117
v 0.679199 -4.817871 9.245117
v -10.071777 1.158203 -4.747070
v -8.574219 -1.207031 -2.815430
v -8.562012 1.161621 -2.836426
v -10.032715 -1.204590 -4.762695
v -9.148438 1.158203 -6.346680
v -9.142090 -1.204590 -6.304688
v -6.726563 -1.207031 -6.015137
v -7.667969 -4.817871 -5.208496
v -8.346191 -4.817871 -4.034180
v 9.146973 1.158203 -6.349121
v 6.725586 -1.207031 -6.017578
v 6.737305 1.161621 -5.997070
v 9.141113 -1.204590 -6.307129
v 10.070313 1.158203 -4.749512
v 10.031250 -1.204590 -4.765137
v 8.572754 -1.207031 -2.817871
v 8.344727 -4.817871 -4.036621
v 7.666992 -4.817871 -5.210938
v 0.000000 -5.410156 0.772949
v 0.000000 -1.692383 1.708008
v 1.208008 -1.692383 1.208008
v 1.710449 -0.906250 1.710449
v 2.418945 -0.906250 0.000000
v 2.418945 0.906250 0.000000
v -1.183594 1.751953 -1.183594
v -1.710449 0.906250 -1.710449
v -1.710449 -0.906250 -1.710449
v -1.673340 1.751953 0.000000
v -2.418945 0.906250 0.000000
v -2.418945 -0.906250 0.000000
v -1.710449 0.906250 1.710449
v 0.000000 1.751953 1.673340
v -1.183594 1.751953 1.183594
v 1.848633 -1.207031 8.833008
v -1.822266 1.161621 8.833008
v 1.824707 1.161621 8.833008
v 0.679199 -4.817871 9.245117
v 0.462891 -4.833984 10.259277
v -0.459961 -4.833984 10.259277
v -8.574219 -1.207031 -2.815430
v -6.738770 1.161621 -5.994629
v -8.562012 1.161621 -2.836426
v -8.346191 -4.817871 -4.034180
v -9.116211 -4.833984 -4.729004
v -8.654785 -4.833984 -5.528320
v 6.725586 -1.207031 -6.017578
v 8.561035 1.161621 -2.838379
v 6.737305 1.161621 -5.997070
v 7.666992 -4.817871 -5.210938
v 8.653320 -4.833984 -5.530273
v 9.114746 -4.833984 -4.730957
v 0.000000 2.292480 0.000000
v 1.673340 1.751953 0.000000
v 1.183594 1.751953 -1.183594
v 1.183594 1.751953 1.183594
v 0.000000 1.751953 1.673340
v 0.772949 -5.410156 0.000000
v 1.708008 -1.692383 0.000000
v -1.822266 1.161621 8.833008
v 0.924805 1.158203 11.096191
v 1.824707 1.161621 8.833008
v -0.922363 1.158203 11.096191
v -6.738770 1.161621 -5.994629
v -10.071777 1.158203 -4.747070
v -8.562012 1.161621 -2.836426
v -9.148438 1.158203 -6.346680
v 8.561035 1.161621 -2.838379
v 9.146973 1.158203 -6.349121
v 6.737305 1.161621 -5.997070
v 10.070313 1.158203 -4.749512
v 0.000000 1.751953 -1.673340
v -1.183594 1.751953 -1.183594
v -1.673340 1.751953 0.000000
v -1.183594 1.751953 1.183594

vt 0.204956 0.827942
vt 0.006531 0.900391
vt 0.006531 0.827942
vt 0.204956 0.900391
vt 0.403320 0.827942
vt 0.385742 0.900391
vt 0.601746 0.827942
vt 0.620300 0.900391
vt 0.800171 0.827942
vt 0.800171 0.900391
vt 0.998535 0.827942
vt 0.998535 0.900391
vt 0.794861 0.827942
vt 0.794861 0.900391
vt 0.596436 0.827942
vt 0.614014 0.900391
vt 0.398010 0.827942
vt 0.379456 0.900391
vt 0.199585 0.827942
vt 0.199585 0.900391
vt 0.003723 0.827942
vt 0.003723 0.900391
vt 0.202148 0.827942
vt 0.202148 0.900391
vt 0.400574 0.827942
vt 0.382446 0.900391
vt 0.598938 0.827942
vt 0.617004 0.900391
vt 0.797363 0.827942
vt 0.797363 0.900391
vt 0.995789 0.827942
vt 0.995789 0.900391
vt 0.006531 1.000305
vt 0.204956 1.000305
vt 0.403320 1.000305
vt 0.601746 1.000305
vt 0.800171 1.000305
vt 0.998535 1.000305
vt 0.794861 1.000305
vt 0.596436 1.000305
vt 0.398010 1.000305
vt 0.199585 1.000305
vt 0.003723 1.000305
vt 0.202148 1.000305
vt 0.400574 1.000305
vt 0.598938 1.000305
vt 0.797363 1.000305
vt 0.995789 1.000305
vt 0.658325 0.547913
vt 0.769043 0.626343
vt 0.658325 0.626343
vt 0.769043 0.547913
vt 0.658325 0.398682
vt 0.769043 0.398682
vt 0.658325 0.326111
vt 0.769043 0.326111
vt 0.769043 0.002014
vt 0.879700 0.326111
vt 0.990417 0.002014
vt 0.990417 0.326111
vt 0.877930 0.326111
vt 0.877930 0.398682
vt 0.767273 0.398682
vt 0.767273 0.547913
vt 0.656677 0.547913
vt 0.656677 0.626343
vt 0.546021 0.626343
vt 0.547607 0.547913
vt 0.547607 0.626343
vt 0.547607 0.398682
vt 0.547607 0.326111
vt 0.547607 0.002014
vt 0.443481 0.380798
vt 0.515015 0.254395
vt 0.515015 0.380981
vt 0.443054 0.254395
vt 0.344360 0.380798
vt 0.344360 0.254395
vt 0.318787 0.254395
vt 0.318787 0.003479
vt 0.300659 0.003479
vt 0.443481 0.380798
vt 0.515015 0.254395
vt 0.515015 0.380981
vt 0.443054 0.254395
vt 0.344360 0.380798
vt 0.344360 0.254395
vt 0.318787 0.254395
vt 0.318787 0.003479
vt 0.300659 0.003479
vt 0.443481 0.380798
vt 0.515015 0.254395
vt 0.515015 0.380981
vt 0.443054 0.254395
vt 0.344360 0.380798
vt 0.344360 0.254395
vt 0.318787 0.254395
vt 0.318787 0.003479
vt 0.300659 0.003479
vt 0.767334 0.002014
vt 0.767273 0.326111
vt 0.656677 0.326111
vt 0.656677 0.398682
vt 0.546021 0.398682
vt 0.546021 0.547913
vt 0.879700 0.626343
vt 0.879700 0.547913
vt 0.879700 0.398682
vt 0.990417 0.626343
vt 0.990417 0.547913
vt 0.990417 0.398682
vt 0.877930 0.547913
vt 0.767334 0.626343
vt 0.877930 0.626343
vt 0.300720 0.254395
vt 0.318787 0.380981
vt 0.300598 0.380981
vt 0.515015 0.003479
vt 0.444702 0.003113
vt 0.344360 0.003113
vt 0.300720 0.254395
vt 0.318787 0.380981
vt 0.300598 0.380981
vt 0.515015 0.003479
vt 0.444702 0.003113
vt 0.344360 0.003113
vt 0.300720 0.254395
vt 0.318787 0.380981
vt 0.300598 0.380981
vt 0.515015 0.003479
vt 0.444702 0.003113
vt 0.344360 0.003113
vt 0.769775 0.751892
vt 0.769775 0.630005
vt 0.630615 0.630188
vt 0.908936 0.630188
vt 0.966553 0.630676
vt 0.546021 0.002014
vt 0.546021 0.326111
vt 0.305115 0.095032
vt 0.078735 0.308044
vt 0.003418 0.095032
vt 0.223022 0.308044
vt 0.305115 0.095032
vt 0.078735 0.308044
vt 0.003418 0.095032
vt 0.223022 0.308044
vt 0.305115 0.095032
vt 0.078735 0.308044
vt 0.003418 0.095032
vt 0.223022 0.308044
vt 0.572998 0.630676
vt 0.630615 0.630188
vt 0.769775 0.630005
vt 0.908936 0.630188

vn 0.099427 -0.969673 0.223268
vn 0.000000 0.000000 -1.000000
vn 0.000000 -0.969678 0.244388
vn -0.406727 0.000000 -0.913550
vn 0.181641 -0.969665 0.163574
vn -0.743154 0.000000 -0.669120
vn 0.232425 -0.969679 0.075502
vn -0.951055 0.000000 -0.309023
vn 0.243103 -0.969663 -0.025574
vn -0.994519 0.000000 0.104555
vn 0.211671 -0.969672 -0.122193
vn -0.866026 0.000000 0.499999
vn 0.143677 -0.969665 -0.197754
vn -0.587772 0.000000 0.809026
vn 0.050842 -0.969669 -0.239076
vn -0.207887 0.000000 0.978153
vn -0.050842 -0.969669 -0.239076
vn 0.207887 0.000000 0.978153
vn -0.143677 -0.969665 -0.197754
vn 0.587772 0.000000 0.809026
vn -0.211671 -0.969672 -0.122193
vn 0.866026 0.000000 0.499999
vn -0.243103 -0.969663 -0.025574
vn 0.994519 0.000000 0.104555
vn -0.232425 -0.969679 0.075502
vn 0.951055 0.000000 -0.309023
vn -0.181641 -0.969665 0.163574
vn 0.743154 0.000000 -0.669120
vn -0.099427 -0.969673 0.223268
vn 0.406727 0.000000 -0.913550
vn 0.000000 -0.969678 0.244388
vn 0.000000 0.000000 -1.000000
vn 0.000000 0.969678 0.244388
vn 0.099427 0.969673 0.223268
vn 0.181641 0.969665 0.163574
vn 0.232425 0.969679 0.075502
vn 0.243103 0.969663 -0.025574
vn 0.211671 0.969672 -0.122193
vn 0.143677 0.969665 -0.197754
vn 0.050842 0.969669 -0.239076
vn -0.050842 0.969669 -0.239076
vn -0.143677 0.969665 -0.197754
vn -0.211671 0.969672 -0.122193
vn -0.243103 0.969663 -0.025574
vn -0.232425 0.969679 0.075502
vn -0.181641 0.969665 0.163574
vn -0.099427 0.969673 0.223268
vn 0.000000 0.969678 0.244388
vn 0.668019 0.327875 -0.668019
vn 0.000000 0.806659 -0.591017
vn 0.417915 0.806656 -0.417915
vn 0.000000 0.327886 -0.944717
vn 0.666782 -0.332872 -0.666782
vn 0.000000 -0.332878 -0.942970
vn 0.612423 -0.499875 -0.612423
vn 0.000000 -0.497676 -0.867363
vn 0.000000 -0.439507 -0.898239
vn -0.612423 -0.499875 -0.612423
vn -0.898239 -0.439507 0.000000
vn -0.867363 -0.497676 0.000000
vn -0.612423 -0.499875 0.612423
vn -0.666782 -0.332872 0.666782
vn 0.000000 -0.332878 0.942970
vn 0.000000 0.327886 0.944717
vn 0.668019 0.327875 0.668019
vn 0.417915 0.806656 0.417915
vn 0.591017 0.806659 0.000000
vn 0.944717 0.327886 0.000000
vn 0.591017 0.806659 0.000000
vn 0.942970 -0.332878 0.000000
vn 0.867363 -0.497676 0.000000
vn 0.898239 -0.439507 0.000000
vn 0.447814 0.595335 0.667112
vn 0.832216 -0.150513 -0.533631
vn 0.682372 0.563415 -0.465759
vn 0.547443 -0.137883 0.825406
vn -0.447814 0.595335 0.667112
vn -0.547443 -0.137883 0.825406
vn -0.832216 -0.150513 -0.533631
vn -0.718203 -0.369630 -0.589540
vn 0.718206 -0.369815 -0.589421
vn -0.801640 0.595340 0.054261
vn 0.046020 -0.150511 0.987537
vn 0.062194 0.563405 0.823837
vn -0.988544 -0.137881 0.061403
vn -0.353821 0.595338 -0.721376
vn -0.441110 -0.137881 -0.886798
vn 0.878238 -0.150513 -0.453920
vn 0.869652 -0.369639 -0.327218
vn 0.151368 -0.369814 0.916692
vn 0.353821 0.595338 -0.721376
vn -0.878238 -0.150513 -0.453920
vn -0.744550 0.563402 -0.358084
vn 0.441110 -0.137881 -0.886798
vn 0.801640 0.595340 0.054261
vn 0.988544 -0.137881 0.061403
vn -0.046020 -0.150511 0.987537
vn -0.151430 -0.369632 0.916756
vn -0.869561 -0.369809 -0.327268
vn 0.000000 -0.439507 0.898239
vn 0.000000 -0.497676 0.867363
vn 0.612423 -0.499875 0.612423
vn 0.666782 -0.332872 0.666782
vn 0.942970 -0.332878 0.000000
vn 0.944717 0.327886 0.000000
vn -0.417915 0.806656 -0.417915
vn -0.668019 0.327875 -0.668019
vn -0.666782 -0.332872 -0.666782
vn -0.591017 0.806659 0.000000
vn -0.944717 0.327886 0.000000
vn -0.942970 -0.332878 0.000000
vn -0.668019 0.327875 0.668019
vn 0.000000 0.806659 0.591017
vn -0.417915 0.806656 0.417915
vn 0.832216 -0.150513 -0.533631
vn -0.682372 0.563415 -0.465759
vn 0.682372 0.563415 -0.465759
vn 0.718206 -0.369815 -0.589421
vn 0.595013 -0.367054 0.715004
vn -0.595014 -0.366932 0.715066
vn 0.046020 -0.150511 0.987537
vn 0.744550 0.563402 -0.358084
vn 0.062194 0.563405 0.823837
vn 0.151368 -0.369814 0.916692
vn -0.916712 -0.367075 0.157780
vn -0.321782 -0.366948 -0.872815
vn -0.878238 -0.150513 -0.453920
vn -0.062194 0.563405 0.823837
vn -0.744550 0.563402 -0.358084
vn -0.869561 -0.369809 -0.327268
vn 0.321713 -0.367061 -0.872793
vn 0.916763 -0.366949 0.157778
vn 0.000000 1.000000 0.000000
vn 0.591017 0.806659 0.000000
vn 0.417915 0.806656 -0.417915
vn 0.417915 0.806656 0.417915
vn 0.000000 0.806659 0.591017
vn 0.898239 -0.439507 0.000000
vn 0.867363 -0.497676 0.000000
vn -0.682372 0.563415 -0.465759
vn 0.447814 0.595335 0.667112
vn 0.682372 0.563415 -0.465759
vn -0.447814 0.595335 0.667112
vn 0.744550 0.563402 -0.358084
vn -0.801640 0.595340 0.054261
vn 0.062194 0.563405 0.823837
vn -0.353821 0.595338 -0.721376
vn -0.062194 0.563405 0.823837
vn 0.353821 0.595338 -0.721376
vn -0.744550 0.563402 -0.358084
vn 0.801640 0.595340 0.054261
vn 0.000000 0.806659 -0.591017
vn -0.417915 0.806656 -0.417915
vn -0.591017 0.806659 0.000000
vn -0.417915 0.806656 0.417915

g polygon0
s 1
usemtl mat2
f 1/1/1 2/2/2 3/3/3
f 1/1/1 4/4/4 2/2/2
f 5/5/5 4/4/4 1/1/1
f 5/5/5 6/6/6 4/4/4
f 7/7/7 6/6/6 5/5/5
f 7/7/7 8/8/8 6/6/6
f 9/9/9 8/8/8 7/7/7
f 9/9/9 10/10/10 8/8/8
f 11/11/11 10/10/10 9/9/9
f 11/11/11 12/12/12 10/10/10
f 13/13/13 12/12/12 11/11/11
f 13/13/13 14/14/14 12/12/12
f 15/15/15 14/14/14 13/13/13
f 15/15/15 16/16/16 14/14/14
f 17/17/17 16/16/16 15/15/15
f 17/17/17 18/18/18 16/16/16
f 19/19/19 18/18/18 17/17/17
f 19/19/19 20/20/20 18/18/18
f 21/21/21 20/20/20 19/19/19
f 21/21/21 22/22/22 20/20/20
f 23/23/23 22/22/22 21/21/21
f 23/23/23 24/24/24 22/22/22
f 25/25/25 24/24/24 23/23/23
f 25/25/25 26/26/26 24/24/24
f 27/27/27 26/26/26 25/25/25
f 27/27/27 28/28/28 26/26/26
f 29/29/29 28/28/28 27/27/27
f 29/29/29 30/30/30 28/28/28
f 31/31/31 30/30/30 29/29/29
f 31/31/31 32/32/32 30/30/30
f 4/4/4 33/33/33 2/2/2
f 4/4/4 34/34/34 33/33/33
f 6/6/6 34/34/34 4/4/4
f 6/6/6 35/35/35 34/34/34
f 8/8/8 35/35/35 6/6/6
f 8/8/8 36/36/36 35/35/35
f 10/10/10 36/36/36 8/8/8
f 10/10/10 37/37/37 36/36/36
f 12/12/12 37/37/37 10/10/10
f 12/12/12 38/38/38 37/37/37
f 14/14/14 38/38/38 12/12/12
f 14/14/14 39/39/39 38/38/38
f 16/16/16 39/39/39 14/14/14
f 16/16/16 40/40/40 39/39/39
f 18/18/18 40/40/40 16/16/16
f 18/18/18 41/41/41 40/40/40
f 20/20/20 41/41/41 18/18/18
f 20/20/20 42/42/42 41/41/41
f 22/22/22 42/42/42 20/20/20
f 22/22/22 43/43/43 42/42/42
f 24/24/24 43/43/43 22/22/22
f 24/24/24 44/44/44 43/43/43
f 26/26/26 44/44/44 24/24/24
f 26/26/26 45/45/45 44/44/44
f 28/28/28 45/45/45 26/26/26
f 28/28/28 46/46/46 45/45/45
f 30/30/30 46/46/46 28/28/28
f 30/30/30 47/47/47 46/46/46
f 32/32/32 47/47/47 30/30/30
f 32/32/32 48/48/48 47/47/47
f 49/49/49 50/50/50 51/51/51
f 49/49/49 52/52/52 50/50/50
f 53/53/53 52/52/52 49/49/49
f 53/53/53 54/54/54 52/52/52
f 55/55/55 54/54/54 53/53/53
f 55/55/55 56/56/56 54/54/54
f 57/57/57 56/56/56 55/55/55
f 57/57/57 58/58/58 56/56/56
f 59/59/59 58/58/58 57/57/57
f 59/59/59 60/60/60 58/58/58
f 61/61/61 60/60/60 59/59/59
f 61/61/61 62/62/62 60/60/60
f 63/63/63 62/62/62 61/61/61
f 63/63/63 64/64/64 62/62/62
f 65/65/65 64/64/64 63/63/63
f 65/65/65 66/66/66 64/64/64
f 67/67/67 66/66/66 65/65/65
f 68/68/68 51/51/51 69/69/69
f 68/68/68 49/49/49 51/51/51
f 70/70/70 49/49/49 68/68/68
f 70/70/70 53/53/53 49/49/49
f 71/71/71 53/53/53 70/70/70
f 71/71/71 55/55/55 53/53/53
f 72/72/72 55/55/55 71/71/71
f 72/72/72 57/57/57 55/55/55
f 73/73/73 74/74/74 75/75/75
f 73/73/73 76/76/76 74/74/74
f 77/77/77 76/76/76 73/73/73
f 77/77/77 78/78/78 76/76/76
f 79/79/79 78/78/78 77/77/77
f 79/79/79 80/80/80 78/78/78
f 81/81/81 80/80/80 79/79/79
f 82/82/82 83/83/83 84/84/84
f 82/82/82 85/85/85 83/83/83
f 86/86/86 85/85/85 82/82/82
f 86/86/86 87/87/87 85/85/85
f 88/88/88 87/87/87 86/86/86
f 88/88/88 89/89/89 87/87/87
f 90/90/90 89/89/89 88/88/88
f 91/91/91 92/92/92 93/93/93
f 91/91/91 94/94/94 92/92/92
f 95/95/95 94/94/94 91/91/91
f 95/95/95 96/96/96 94/94/94
f 97/97/97 96/96/96 95/95/95
f 97/97/97 98/98/98 96/96/96
f 99/99/99 98/98/98 97/97/97
f 100/100/100 61/61/61 59/59/59
f 100/100/100 101/101/101 61/61/61
f 102/102/102 101/101/101 100/100/100
f 102/102/102 103/103/103 101/101/101
f 104/104/104 103/103/103 102/102/102
f 104/104/104 105/105/105 103/103/103
f 52/52/52 106/106/106 50/50/50
f 52/52/52 107/107/107 106/106/106
f 54/54/54 107/107/107 52/52/52
f 54/54/54 108/108/108 107/107/107
f 56/56/56 108/108/108 54/54/54
f 56/56/56 58/58/58 108/108/108
f 107/107/107 109/109/109 106/106/106
f 107/107/107 110/110/110 109/109/109
f 108/108/108 110/110/110 107/107/107
f 108/108/108 111/111/111 110/110/110
f 58/58/58 111/111/111 108/108/108
f 58/58/58 60/60/60 111/111/111
f 62/62/62 111/111/111 60/60/60
f 62/62/62 112/112/112 111/111/111
f 64/64/64 112/112/112 62/62/62
f 64/64/64 113/113/113 112/112/112
f 66/66/66 113/113/113 64/64/64
f 112/112/112 110/110/110 111/111/111
f 112/112/112 114/114/114 110/110/110
f 113/113/113 114/114/114 112/112/112
f 115/115/115 116/116/116 117/117/117
f 115/115/115 79/79/79 116/116/116
f 81/81/81 79/79/79 115/115/115
f 76/76/76 118/118/118 74/74/74
f 76/76/76 119/119/119 118/118/118
f 120/120/120 119/119/119 76/76/76
f 121/121/121 122/122/122 123/123/123
f 121/121/121 88/88/88 122/122/122
f 90/90/90 88/88/88 121/121/121
f 85/85/85 124/124/124 83/83/83
f 85/85/85 125/125/125 124/124/124
f 126/126/126 125/125/125 85/85/85
f 127/127/127 128/128/128 129/129/129
f 127/127/127 97/97/97 128/128/128
f 99/99/99 97/97/97 127/127/127
f 94/94/94 130/130/130 92/92/92
f 94/94/94 131/131/131 130/130/130
f 132/132/132 131/131/131 94/94/94
f 133/133/133 134/134/134 135/135/135
f 133/133/133 136/136/136 134/134/134
f 137/137/137 136/136/136 133/133/133
f 138/138/138 102/102/102 100/100/100
f 138/138/138 139/139/139 102/102/102
f 101/101/101 63/63/63 61/61/61
f 101/101/101 103/103/103 63/63/63
f 103/103/103 65/65/65 63/63/63
f 103/103/103 105/105/105 65/65/65
f 120/120/120 78/78/78 80/80/80
f 120/120/120 76/76/76 78/78/78
f 140/140/140 141/141/141 142/142/142
f 140/140/140 143/143/143 141/141/141
f 126/126/126 87/87/87 89/89/89
f 126/126/126 85/85/85 87/87/87
f 144/144/144 145/145/145 146/146/146
f 144/144/144 147/147/147 145/145/145
f 132/132/132 96/96/96 98/98/98
f 132/132/132 94/94/94 96/96/96
f 148/148/148 149/149/149 150/150/150
f 148/148/148 151/151/151 149/149/149
f 152/152/152 133/133/133 135/135/135
f 152/152/152 153/153/153 133/133/133
f 154/154/154 133/133/133 153/153/153
f 154/154/154 155/155/155 133/133/133
f 139/139/139 104/104/104 102/102/102
f 109/109/109 110/110/110 114/114/114
f 105/105/105 67/67/67 65/65/65
f 116/116/116 79/79/79 77/77/77
f 122/122/122 88/88/88 86/86/86
f 128/128/128 97/97/97 95/95/95
f 137/137/137 133/133/133 155/155/155

v -3.343262 1.941406 -7.508789
v 0.000000 -1.941406 -8.219727
v 0.000000 1.941406 -8.219727
v -3.343262 -1.941406 -7.508789
v -6.108398 1.941406 -5.500000
v -6.108398 -1.941406 -5.500000
v -7.817383 1.941406 -2.540039
v -7.817383 -1.941406 -2.540039
v -8.174316 1.941406 0.859375
v -8.174316 -1.941406 0.859375
v -7.118164 1.941406 4.109863
v -7.118164 -1.941406 4.109863
v -4.831543 1.941406 6.649902
v -4.831543 -1.941406 6.649902
v -1.708984 1.941406 8.040039
v -1.708984 -1.941406 8.040039
v 1.708984 1.941406 8.040039
v 1.708984 -1.941406 8.040039
v 4.831543 1.941406 6.649902
v 4.831543 -1.941406 6.649902
v 7.118164 1.941406 4.109863
v 7.118164 -1.941406 4.109863
v 8.174316 1.941406 0.859375
v 8.174316 -1.941406 0.859375
v 7.817383 1.941406 -2.540039
v 7.817383 -1.941406 -2.540039
v 6.108398 1.941406 -5.500000
v 6.108398 -1.941406 -5.500000
v 3.343262 1.941406 -7.508789
v 3.343262 -1.941406 -7.508789
v 0.000000 1.941406 -8.219727
v 0.000000 -1.941406 -8.219727

vt 0.204926 0.759094
vt 0.006531 0.827972
vt 0.006531 0.759094
vt 0.204926 0.827972
vt 0.403351 0.759094
vt 0.403351 0.827972
vt 0.601746 0.759094
vt 0.601746 0.827972
vt 0.800140 0.759094
vt 0.800140 0.827972
vt 0.998566 0.759094
vt 0.998566 0.827972
vt 0.794830 0.759094
vt 0.794830 0.827972
vt 0.596436 0.759094
vt 0.596436 0.827972
vt 0.398010 0.759094
vt 0.398010 0.827972
vt 0.199615 0.759094
vt 0.199615 0.827972
vt 0.003754 0.759094
vt 0.003754 0.827972
vt 0.202148 0.759094
vt 0.202148 0.827972
vt 0.400543 0.759094
vt 0.400543 0.827972
vt 0.598969 0.759094
vt 0.598969 0.827972
vt 0.797363 0.759094
vt 0.797363 0.827972
vt 0.995789 0.759094
vt 0.995789 0.827972

vn 0.099427 0.969673 0.223268
vn 0.000000 -0.969678 0.244388
vn 0.000000 0.969678 0.244388
vn 0.099427 -0.969673 0.223268
vn 0.181641 0.969665 0.163574
vn 0.181641 -0.969665 0.163574
vn 0.232425 0.969679 0.075502
vn 0.232425 -0.969679 0.075502
vn 0.243103 0.969663 -0.025574
vn 0.243103 -0.969663 -0.025574
vn 0.211671 0.969672 -0.122193
vn 0.211671 -0.969672 -0.122193
vn 0.143677 0.969665 -0.197754
vn 0.143677 -0.969665 -0.197754
vn 0.050842 0.969669 -0.239076
vn 0.050842 -0.969669 -0.239076
vn -0.050842 0.969669 -0.239076
vn -0.050842 -0.969669 -0.239076
vn -0.143677 0.969665 -0.197754
vn -0.143677 -0.969665 -0.197754
vn -0.211671 0.969672 -0.122193
vn -0.211671 -0.969672 -0.122193
vn -0.243103 0.969663 -0.025574
vn -0.243103 -0.969663 -0.025574
vn -0.232425 0.969679 0.075502
vn -0.232425 -0.969679 0.075502
vn -0.181641 0.969665 0.163574
vn -0.181641 -0.969665 0.163574
vn -0.099427 0.969673 0.223268
vn -0.099427 -0.969673 0.223268
vn 0.000000 0.969678 0.244388
vn 0.000000 -0.969678 0.244388

g polygon1
s 1
usemtl mat3
f 156/156/156 157/157/157 158/158/158
f 156/156/156 159/159/159 157/157/157
f 160/160/160 159/159/159 156/156/156
f 160/160/160 161/161/161 159/159/159
f 162/162/162 161/161/161 160/160/160
f 162/162/162 163/163/163 161/161/161
f 164/164/164 163/163/163 162/162/162
f 164/164/164 165/165/165 163/163/163
f 166/166/166 165/165/165 164/164/164
f 166/166/166 167/167/167 165/165/165
f 168/168/168 167/167/167 166/166/166
f 168/168/168 169/169/169 167/167/167
f 170/170/170 169/169/169 168/168/168
f 170/170/170 171/171/171 169/169/169
f 172/172/172 171/171/171 170/170/170
f 172/172/172 173/173/173 171/171/171
f 174/174/174 173/173/173 172/172/172
f 174/174/174 175/175/175 173/173/173
f 176/176/176 175/175/175 174/174/174
f 176/176/176 177/177/177 175/175/175
f 178/178/178 177/177/177 176/176/176
f 178/178/178 179/179/179 177/177/177
f 180/180/180 179/179/179 178/178/178
f 180/180/180 181/181/181 179/179/179
f 182/182/182 181/181/181 180/180/180
f 182/182/182 183/183/183 181/181/181
f 184/184/184 183/183/183 182/182/182
f 184/184/184 185/185/185 183/183/183
f 186/186/186 185/185/185 184/184/184
f 186/186/186 187/187/187 185/185/185

v 0.000000 -6.608887 0.000000
v 0.000000 -5.410156 -0.772949
v 0.772949 -5.410156 0.000000
v -0.772949 -5.410156 0.000000
v 0.000000 -5.410156 0.772949
v 0.000977 -6.060547 9.659180
v -0.676758 -4.817871 9.245117
v 0.679199 -4.817871 9.245117
v -0.459961 -4.833984 10.259277
v 0.462891 -4.833984 10.259277
v -8.365723 -6.060547 -4.829102
v -7.667969 -4.817871 -5.208496
v -8.346191 -4.817871 -4.034180
v -8.654785 -4.833984 -5.528320
v -9.116211 -4.833984 -4.729004
v 8.364746 -6.060547 -4.830078
v 8.344727 -4.817871 -4.036621
v 7.666992 -4.817871 -5.210938
v 9.114746 -4.833984 -4.730957
v 8.653320 -4.833984 -5.530273

vt 0.422638 0.454926
vt 0.510834 0.415405
vt 0.510834 0.415405
vt 0.510834 0.415436
vt 0.510834 0.415436
vt 0.422791 0.455017
vt 0.510773 0.502167
vt 0.510773 0.415710
vt 0.510773 0.415710
vt 0.510773 0.502167
vt 0.422791 0.455017
vt 0.510773 0.502167
vt 0.510773 0.415710
vt 0.510773 0.415710
vt 0.510773 0.502167
vt 0.422791 0.455017
vt 0.510773 0.502167
vt 0.510773 0.415710
vt 0.510773 0.415710
vt 0.510773 0.502167

vn 7924809334889683200000000000000000.000000 7840161470883427500000000000000000.000000 -1.#QNAN0
vn 7924809334889683200000000000000000.000000 7840161470883427500000000000000000.000000 -1.#QNAN0
vn 7924809334889683200000000000000000.000000 7840161470883427500000000000000000.000000 -1.#QNAN0
vn 7900660838543343300000000000000000.000000 0.000000 0.000000
vn 7900660838543343300000000000000000.000000 0.000000 0.000000
vn 7924809334889683200000000000000000.000000 7840161470883427500000000000000000.000000 -1.#QNAN0
vn 7924809334889683200000000000000000.000000 7840161470883427500000000000000000.000000 -1.#QNAN0
vn 7924809334889683200000000000000000.000000 7840161470883427500000000000000000.000000 -1.#QNAN0
vn 7900660838543343300000000000000000.000000 0.000000 0.000000
vn 7900660838543343300000000000000000.000000 0.000000 0.000000
vn 7924809334889683200000000000000000.000000 7840161470883427500000000000000000.000000 -1.#QNAN0
vn 7924809334889683200000000000000000.000000 7840161470883427500000000000000000.000000 -1.#QNAN0
vn 7924809334889683200000000000000000.000000 7840161470883427500000000000000000.000000 -1.#QNAN0
vn 7900660838543343300000000000000000.000000 0.000000 0.000000
vn 7900660838543343300000000000000000.000000 0.000000 0.000000
vn 7924809334889683200000000000000000.000000 7840161470883427500000000000000000.000000 -1.#QNAN0
vn 7924809334889683200000000000000000.000000 7840161470883427500000000000000000.000000 -1.#QNAN0
vn 7924809334889683200000000000000000.000000 7840161470883427500000000000000000.000000 -1.#QNAN0
vn 7900660838543343300000000000000000.000000 0.000000 0.000000
vn 7900660838543343300000000000000000.000000 0.000000 0.000000

g polygon2
s 1
usemtl mat1
f 188/188/188 189/189/189 190/190/190
f 188/188/188 191/191/191 189/189/189
f 192/192/192 191/191/191 188/188/188
f 193/193/193 194/194/194 195/195/195
f 193/193/193 196/196/196 194/194/194
f 197/197/197 196/196/196 193/193/193
f 198/198/198 199/199/199 200/200/200
f 198/198/198 201/201/201 199/199/199
f 202/202/202 201/201/201 198/198/198
f 203/203/203 204/204/204 205/205/205
f 203/203/203 206/206/206 204/204/204
f 207/207/207 206/206/206 203/203/203
f 192/192/192 188/188/188 190/190/190
f 193/193/193 195/195/195 197/197/197
f 198/198/198 200/200/200 202/202/202
f 203/203/203 205/205/205 207/207/207

v 0.469727 0.515625 0.785156
v -7.564941 -0.999512 2.421875
v -5.889648 0.952637 5.323242
v -7.529297 -1.270508 1.864258
v -7.100586 -1.330566 1.497559
v 0.445313 0.515625 -0.799805
v 5.879883 -0.999512 5.340820
v 7.555176 0.952637 2.438965
v 5.379395 -1.270508 5.588379
v 4.847168 -1.330566 5.400391
v -0.915039 0.515625 0.014160
v 1.685059 -0.999512 -7.762207
v -1.665039 0.952637 -7.762207
v 2.150391 -1.270508 -7.452637
v 2.253418 -1.330566 -6.897949
v -4.857422 1.283691 5.383301
v -5.389160 1.223633 5.571289
v 7.090332 1.283691 1.515137
v 7.519531 1.223633 1.881348
v -2.233398 1.283691 -6.897949
v -2.130371 1.223633 -7.452637
v -0.455078 -0.562500 -0.816895
v -0.479980 -0.562500 0.802734
v 0.935059 -0.562500 0.014160

vt 0.479279 0.515381
vt 0.016449 0.695190
vt 0.016449 0.463531
vt 0.033875 0.727356
vt 0.065094 0.734497
vt 0.479279 0.515381
vt 0.016449 0.695190
vt 0.016449 0.463531
vt 0.033875 0.727356
vt 0.065094 0.734497
vt 0.479279 0.515381
vt 0.016449 0.695190
vt 0.016449 0.463531
vt 0.033875 0.727356
vt 0.065094 0.734497
vt 0.065094 0.424225
vt 0.033875 0.431366
vt 0.065094 0.424225
vt 0.033875 0.431366
vt 0.065094 0.424225
vt 0.033875 0.431366
vt 0.479279 0.643341
vt 0.479279 0.643341
vt 0.479279 0.643341

vn -0.250951 0.862646 -0.439165
vn -0.250951 0.862646 -0.439165
vn -0.250951 0.862646 -0.439165
vn -0.250951 0.862646 -0.439165
vn -0.250951 0.862646 -0.439165
vn -0.250951 0.862646 0.439165
vn -0.250951 0.862646 0.439165
vn -0.250951 0.862646 0.439165
vn -0.250951 0.862646 0.439165
vn -0.250951 0.862646 0.439165
vn 0.502894 0.864348 0.000000
vn 0.502894 0.864348 0.000000
vn 0.502894 0.864348 0.000000
vn 0.502894 0.864348 0.000000
vn 0.502894 0.864348 0.000000
vn -0.250951 0.862646 -0.439165
vn -0.250951 0.862646 -0.439165
vn -0.250951 0.862646 0.439165
vn -0.250951 0.862646 0.439165
vn 0.502894 0.864348 0.000000
vn 0.502894 0.864348 0.000000
vn -0.250951 0.862646 -0.439165
vn -0.250951 0.862646 0.439165
vn 0.502894 0.864348 0.000000

g polygon3
s 1
usemtl mat3
f 208/208/208 209/209/209 210/210/210
f 208/208/208 211/211/211 209/209/209
f 212/212/212 211/211/211 208/208/208
f 213/213/213 214/214/214 215/215/215
f 213/213/213 216/216/216 214/214/214
f 217/217/217 216/216/216 213/213/213
f 218/218/218 219/219/219 220/220/220
f 218/218/218 221/221/221 219/219/219
f 222/222/222 221/221/221 218/218/218
f 223/223/223 210/210/210 224/224/224
f 223/223/223 208/208/208 210/210/210
f 225/225/225 215/215/215 226/226/226
f 225/225/225 213/213/213 215/215/215
f 227/227/227 220/220/220 228/228/228
f 227/227/227 218/218/218 220/220/220
f 229/229/229 212/212/212 208/208/208
f 230/230/230 217/217/217 213/213/213
f 231/231/231 222/222/222 218/218/218

