# Blender 4.5.1 LTS
# www.blender.org
mtllib Wood Box Complete.mtl
o CrateComplete
v -0.439095 -0.413226 0.479556
v -0.436388 -0.413226 0.479556
v -0.439095 0.469481 0.479556
v 0.441383 -0.413226 0.479536
v 0.438676 -0.413226 0.479536
v 0.438676 0.469481 0.479536
v 0.500149 -0.472000 0.479536
v -0.439063 0.528986 0.479536
v 0.438675 0.528986 0.479536
v 0.500149 0.528986 0.479536
v -0.500275 0.528986 0.479536
v 0.438977 -0.472000 0.479536
v -0.500275 -0.413430 0.479536
v 0.500149 0.469501 0.479536
v 0.500149 -0.413430 0.479536
v -0.438982 -0.472000 0.479536
v -0.500275 -0.472000 0.479536
v -0.500275 0.469351 0.479536
v 0.438694 -0.413226 0.450307
v -0.439095 -0.413226 0.450307
v -0.436388 -0.413226 0.450307
v -0.439095 0.469481 0.450307
v 0.470482 -0.413226 0.418243
v 0.470482 0.469481 0.418242
v -0.439095 0.499041 0.418241
v 0.438714 0.528986 0.418241
v -0.471048 -0.413223 0.418241
v -0.500281 -0.413223 0.418241
v -0.471048 0.469371 0.418241
v -0.439095 0.528986 0.418241
v -0.500281 0.470046 0.418240
v -0.438982 -0.472000 0.418240
v 0.500149 -0.472000 0.418240
v -0.500275 -0.472000 0.418240
v 0.438977 -0.472000 0.418240
v 0.500144 -0.413226 0.418231
v 0.500144 0.469481 0.418231
v -0.500275 0.528986 0.418230
v 0.500149 0.528986 0.418230
v -0.439113 -0.443475 0.416021
v 0.500024 0.469481 -0.459452
v 0.470482 0.469481 -0.459452
v 0.500024 -0.413226 -0.459452
v 0.470482 -0.413226 -0.459452
v 0.500149 0.528986 -0.459455
v -0.500275 0.528986 -0.459455
v -0.439095 0.499041 -0.459464
v 0.438714 0.528986 -0.459464
v -0.439095 0.528986 -0.459464
v 0.438714 0.499041 -0.459464
v -0.500246 -0.413223 -0.459464
v -0.471048 -0.413223 -0.459464
v -0.471048 0.469371 -0.459464
v -0.500246 0.470046 -0.459464
v 0.438859 -0.443475 -0.459515
v -0.500275 -0.472000 -0.459859
v -0.438982 -0.472000 -0.459859
v 0.438977 -0.472000 -0.459859
v 0.500149 -0.472000 -0.459859
v -0.439113 -0.443475 -0.460004
v -0.439095 -0.413226 -0.491226
v 0.438714 0.469481 -0.491226
v -0.439095 0.469481 -0.491226
v -0.439095 0.469481 -0.520659
v 0.438714 0.469481 -0.520659
v 0.438714 -0.413226 -0.520659
v -0.439095 -0.413226 -0.520659
v -0.500275 -0.413430 -0.520744
v 0.438675 0.528561 -0.520744
v -0.438982 -0.472000 -0.520744
v 0.438977 -0.472000 -0.520744
v -0.500291 -0.472000 -0.520744
v 0.500149 0.528986 -0.520744
v -0.500275 0.469351 -0.520744
v -0.439063 0.528561 -0.520744
v -0.500275 0.528986 -0.520744
v 0.500149 -0.413430 -0.520744
v 0.500149 0.469741 -0.520744
v 0.500149 -0.472000 -0.520744
v 0.438676 0.469481 0.450265
v 0.438694 0.469481 0.418618
v -0.439095 0.468759 0.418241
v 0.438714 0.498704 0.418241
v 0.438714 0.468916 -0.459464
v -0.439095 0.468955 -0.459464
v 0.441383 -0.413226 0.450246
v -0.436388 -0.413226 0.418296
v 0.438977 -0.443588 0.418240
v 0.439131 -0.413226 0.418243
v 0.438859 -0.415052 -0.459515
v 0.438714 -0.413226 -0.461843
v 0.438714 -0.413226 -0.491276
v -0.439561 -0.413223 0.418241
v -0.439561 -0.413223 -0.459464
vn -0.0007 -0.0007 -1.0000
vn -0.0014 -0.0000 -1.0000
vn -0.0007 -0.0006 -1.0000
vn -0.0007 0.0006 -1.0000
vn -0.0006 0.0007 -1.0000
vn -0.0007 0.0007 -1.0000
vn -0.0000 0.0014 -1.0000
vn -0.0006 0.0008 -1.0000
vn 0.0006 0.0008 -1.0000
vn 0.0007 0.0007 -1.0000
vn 0.0007 0.0006 -1.0000
vn 0.0014 -0.0000 -1.0000
vn 0.0008 0.0005 -1.0000
vn 0.0007 -0.0006 -1.0000
vn 0.0007 -0.0007 -1.0000
vn -0.0000 -0.0014 -1.0000
vn 0.0006 -0.0008 -1.0000
vn 0.0006 -0.0007 -1.0000
vn -0.0006 -0.0008 -1.0000
vn -1.0000 -0.0005 -0.0000
vn -1.0000 -0.0000 -0.0000
vn -1.0000 0.0001 -0.0000
vn -1.0000 -0.0000 0.0001
vn -1.0000 -0.0001 -0.0000
vn -1.0000 0.0005 0.0001
vn -1.0000 0.0005 -0.0000
vn -1.0000 0.0005 0.0003
vn -1.0000 0.0002 0.0003
vn -1.0000 0.0003 0.0005
vn -1.0000 -0.0000 0.0005
vn -1.0000 0.0003 0.0003
vn -0.0019 0.0046 1.0000
vn 0.7070 0.0066 0.7072
vn -0.7053 -0.0045 0.7089
vn -0.5023 -0.7089 -0.4952
vn -0.7060 -0.0079 -0.7082
vn 0.6888 -0.0521 -0.7231
vn 0.7071 -0.0000 -0.7071
vn -0.0000 -0.0001 -1.0000
vn 1.0000 -0.0000 -0.0000
vn -0.7071 -0.0000 -0.7071
vn -0.0001 -0.0004 1.0000
vn -0.7071 -0.0000 0.7071
vn 0.7071 -0.0000 0.7071
vn 0.5000 0.7071 0.5000
vn -0.0004 -0.0000 -1.0000
vn -0.0000 1.0000 -0.0000
vn -0.0000 -0.0000 1.0000
vn -0.0000 -1.0000 -0.0000
vn -1.0000 -0.0000 -0.0006
vn -1.0000 -0.0000 -0.0005
vn -0.0000 -0.0000 -1.0000
vn -0.0231 -0.9997 -0.0000
vn -0.0001 -1.0000 -0.0000
vn -0.0000 -1.0000 -0.0001
vn 0.0012 1.0000 -0.0035
vn 0.0035 1.0000 -0.0035
vn 0.0035 1.0000 -0.0069
vn -0.0035 1.0000 -0.0069
vn -0.0012 1.0000 -0.0034
vn -0.0012 1.0000 -0.0035
vn -0.0035 1.0000 -0.0035
vn 0.0276 -0.0774 -0.9966
vn 1.0000 0.0046 0.0001
vn -0.0000 0.0001 -1.0000
vn -0.0001 -0.0000 -1.0000
vn 1.0000 0.0010 0.0010
vn 1.0000 0.0021 -0.0000
vn 1.0000 0.0011 0.0010
vn 1.0000 0.0001 -0.0001
vn 1.0000 0.0001 -0.0000
vn 1.0000 -0.0000 -0.0001
vn 1.0000 -0.0001 -0.0000
vn 1.0000 -0.0010 0.0009
vn 1.0000 -0.0001 -0.0001
vn 1.0000 -0.0010 0.0010
vn 1.0000 -0.0021 -0.0000
vn 1.0000 -0.0011 0.0009
vn 1.0000 -0.0009 0.0011
vn 1.0000 -0.0000 0.0020
vn 1.0000 0.0011 0.0009
vn -0.0000 -0.0003 1.0000
vn -0.0000 0.0002 1.0000
vn -0.0002 -0.0001 1.0000
vn -0.0000 0.0003 1.0000
vn -0.0003 -0.0000 1.0000
vn 0.0001 -1.0000 -0.0000
vn 0.7073 -0.0002 -0.7069
vn 0.0028 0.0123 -0.9999
vn 1.0000 0.0001 0.0003
vn -0.9993 -0.0383 0.0009
vn -0.7070 -0.0000 0.7072
vn -0.0000 -0.0011 1.0000
vn -0.0211 -0.9998 -0.0000
vn -0.0212 -0.9998 -0.0000
vn -0.7060 -0.0076 -0.7082
vn 0.6889 -0.0508 -0.7231
vn -0.5065 -0.7047 -0.4968
vn 0.6096 -0.6538 -0.4482
vn -0.0002 -0.0107 0.9999
vn -0.7049 -0.0067 0.7092
vn 0.7070 0.0070 0.7072
vn 0.9998 0.0167 -0.0075
vn -0.0000 1.0000 -0.0001
vt -1.995630 0.999721
vt -1.995630 0.921736
vt -1.906650 0.921736
vt -1.995630 0.086256
vt -1.906650 0.086256
vt -1.995630 0.000164
vt -1.906650 0.000164
vt -1.083410 0.000164
vt -1.083410 0.086256
vt -0.998284 0.000164
vt -0.998284 0.086256
vt -0.998284 0.921736
vt -1.083410 0.921736
vt -0.998284 0.999721
vt -1.083410 0.999721
vt -1.906650 0.999721
vt -0.916433 0.921736
vt -0.916433 0.999721
vt -0.082678 0.999721
vt -0.082678 0.921736
vt 0.000793 0.999721
vt 0.000793 0.921736
vt -0.082678 0.086256
vt 0.000793 0.086256
vt 0.000793 0.000164
vt -0.082678 0.000164
vt -0.916433 0.000164
vt -0.916433 0.086256
vt 1.882940 -0.103356
vt 1.914580 -0.913922
vt 1.914580 -0.078948
vt 1.117040 -0.103356
vt 1.082810 -0.078948
vt 1.082810 -0.913922
vt 1.082810 1.921840
vt 1.117040 1.109620
vt 1.117040 1.897980
vt 1.082810 1.086130
vt 1.882940 1.108830
vt 1.914740 1.086130
vt 1.914450 1.921840
vt 1.882940 1.897970
vt 1.117040 0.893152
vt 1.082810 0.921736
vt 1.117040 0.104870
vt 1.082810 0.086256
vt 1.882940 0.104870
vt 1.914580 0.086256
vt 1.882940 0.893152
vt 1.914860 0.921736
vt 0.883498 0.893152
vt 0.915870 0.921736
vt 0.116586 0.893152
vt 0.080845 0.921736
vt 0.117696 0.105952
vt 0.080845 0.086256
vt 0.883498 0.105952
vt 0.915870 0.086256
vt -0.882839 0.893152
vt -0.882839 0.105952
vt -0.113885 0.105952
vt -0.113386 0.893152
vt -1.875150 0.893152
vt -1.875360 0.105952
vt -1.117480 0.105952
vt -1.117480 0.893152
vt 1.995490 0.000164
vt 1.914450 0.000164
vt 1.082810 0.000164
vt 1.002820 0.000164
vt 1.002820 -0.078948
vt 1.002820 -0.913922
vt 1.002820 -0.999413
vt 1.082810 -0.999064
vt 1.914580 -0.999355
vt 1.997980 -0.999413
vt 1.997980 -0.913922
vt 1.997980 -0.078948
vt 1.882940 -0.892830
vt 1.117040 -0.892830
vt 1.082810 1.997330
vt 1.002820 1.997330
vt 1.914240 1.997330
vt 1.996080 1.997330
vt 1.995980 1.921840
vt 1.997930 1.086130
vt 1.997980 0.999721
vt 1.914580 0.999721
vt 1.082810 0.999721
vt 1.002820 0.999721
vt 1.002820 1.086130
vt 1.002820 1.921840
vt 1.002820 0.086256
vt 1.002820 0.921736
vt 1.998260 0.921736
vt 1.997980 0.086256
vt 0.080845 0.000164
vt 0.915870 0.000164
vt 0.915870 0.999721
vt 0.080845 0.999721
s 0
usemtl Standardmaterial
f 73/1/1 78/2/2 65/3/3
f 77/4/2 65/3/3 78/2/2
f 65/3/3 77/4/2 66/5/4
f 79/6/5 66/5/6 77/4/2
f 66/5/6 79/6/4 71/7/7
f 70/8/7 66/5/5 71/7/7
f 66/5/8 70/8/7 67/9/9
f 72/10/10 67/9/11 70/8/7
f 67/9/10 72/10/11 68/11/12
f 74/12/12 67/9/13 68/11/12
f 67/9/11 74/12/12 64/13/14
f 76/14/15 64/13/14 74/12/12
f 75/15/16 64/13/17 76/14/18
f 64/13/17 75/15/16 65/3/3
f 69/16/16 65/3/3 75/15/16
f 65/3/19 69/16/16 73/1/19
f 54/17/20 46/18/20 76/14/20
f 46/18/20 54/17/20 38/19/21
f 31/20/22 38/19/22 54/17/22
f 38/19/22 31/20/22 11/21/22
f 11/21/23 31/20/23 18/22/23
f 28/23/23 18/22/23 31/20/23
f 18/22/23 28/23/23 13/24/23
f 13/24/23 28/23/23 17/25/23
f 17/25/24 28/23/24 34/26/24
f 34/26/24 28/23/24 56/27/25
f 51/28/26 56/27/26 28/23/21
f 56/27/27 51/28/28 72/10/27
f 72/10/29 51/28/29 68/11/29
f 54/17/30 68/11/30 51/28/31
f 68/11/30 54/17/30 74/12/30
f 76/14/30 74/12/30 54/17/30
s 1
f 55/29/32 57/30/33 58/31/34
f 55/29/32 58/31/34 88/32/35
f 35/33/36 88/32/35 58/31/34
f 35/33/36 32/34/37 88/32/35
f 30/35/38 83/36/39 25/37/40
f 83/36/39 30/35/38 26/38/41
f 83/36/39 26/38/41 50/39/42
f 48/40/43 50/39/42 26/38/41
f 48/40/43 49/41/44 50/39/42
f 47/42/45 50/39/42 49/41/44
f 47/42/45 49/41/44 25/37/40
f 30/35/38 25/37/40 49/41/44
s 0
f 24/43/46 37/44/46 23/45/46
f 36/46/46 23/45/46 37/44/46
f 23/45/47 36/46/47 44/47/47
f 43/48/47 44/47/47 36/46/47
f 44/47/48 43/48/48 42/49/48
f 41/50/48 42/49/48 43/48/48
f 42/49/49 41/50/49 24/43/49
f 37/44/49 24/43/49 41/50/49
f 80/51/49 6/52/49 22/53/49
f 3/54/49 22/53/49 6/52/49
f 22/53/40 3/54/40 20/55/40
f 1/56/40 20/55/40 3/54/40
f 21/55/47 2/56/47 86/57/47
f 4/58/47 86/57/47 2/56/47
f 19/57/50 5/58/50 80/51/50
f 6/52/51 80/51/51 5/58/51
f 53/59/48 54/17/48 52/60/48
f 51/28/48 52/60/48 54/17/48
f 52/60/47 51/28/47 27/61/47
f 28/23/47 27/61/47 51/28/47
f 27/61/52 28/23/52 29/62/52
f 31/20/52 29/62/52 28/23/52
f 29/62/53 31/20/53 53/59/53
f 54/17/53 53/59/53 31/20/53
f 62/63/21 65/3/21 92/64/21
f 66/5/21 92/64/21 65/3/21
f 92/64/47 66/5/47 61/65/47
f 67/9/47 61/65/47 66/5/47
f 61/65/40 67/9/40 63/66/40
f 64/13/40 63/66/40 67/9/40
f 63/66/49 64/13/49 62/63/49
f 65/3/49 62/63/49 64/13/49
f 79/67/49 59/68/49 58/31/49
f 33/69/49 58/31/49 59/68/49
f 58/31/49 33/69/49 35/33/49
f 7/70/49 35/33/49 33/69/49
f 12/71/49 35/33/49 7/70/49
f 35/33/49 12/71/49 32/34/49
f 16/72/49 32/34/49 12/71/49
f 17/73/49 32/34/49 16/72/49
f 34/74/49 32/34/49 17/73/49
f 32/34/49 34/74/49 57/30/49
f 56/75/49 57/30/49 34/74/49
f 72/76/49 57/30/49 56/75/49
f 70/77/49 57/30/49 72/76/49
f 57/30/49 70/77/49 58/31/49
f 71/78/49 58/31/49 70/77/49
f 58/31/49 71/78/49 79/67/49
f 60/79/54 88/32/54 40/80/54
f 88/32/55 60/79/55 55/29/55
f 30/35/47 38/81/47 11/82/47
f 38/81/47 30/35/47 46/83/47
f 49/41/56 46/83/47 30/35/47
s 1
f 46/83/47 49/41/56 76/84/57
s 0
f 75/85/58 76/84/57 49/41/56
s 1
f 75/85/58 49/41/56 69/86/59
s 0
f 48/40/60 69/86/59 49/41/56
f 69/86/59 48/40/61 73/87/62
s 1
f 73/87/62 48/40/61 45/88/47
s 0
f 26/38/47 45/88/47 48/40/61
f 45/88/47 26/38/47 39/89/47
f 26/38/47 10/90/47 39/89/47
f 10/90/47 26/38/47 9/91/47
f 30/35/47 9/91/47 26/38/47
f 9/91/47 30/35/47 8/92/47
f 11/82/47 8/92/47 30/35/47
s 1
f 40/80/63 88/32/35 32/34/37
f 40/80/63 32/34/37 60/79/64
f 57/30/33 60/79/64 32/34/37
f 57/30/33 55/29/32 60/79/64
s 0
f 92/64/65 63/66/65 62/63/65
f 63/66/66 92/64/66 61/65/66
f 52/60/21 29/62/21 53/59/21
f 29/62/21 52/60/21 27/61/21
f 20/55/48 80/51/48 22/53/48
f 80/51/48 20/55/48 19/57/48
f 42/49/40 23/45/40 44/47/40
f 23/45/40 42/49/40 24/43/40
f 43/48/67 59/68/68 79/67/69
f 59/68/68 43/48/69 33/69/70
f 36/46/70 33/69/70 43/48/67
f 33/69/71 36/46/71 7/70/71
f 7/70/72 36/46/72 15/93/72
f 37/44/72 15/93/72 36/46/72
f 15/93/72 37/44/72 14/94/72
f 37/44/72 10/90/72 14/94/72
f 10/90/73 37/44/73 39/89/73
f 41/50/74 39/89/75 37/44/75
f 39/89/72 41/50/76 45/88/77
f 41/50/78 73/87/76 45/88/77
f 73/87/76 41/50/79 78/95/80
f 43/48/67 78/95/80 41/50/79
f 78/95/80 43/48/81 77/96/80
f 79/67/67 77/96/80 43/48/67
f 17/25/82 16/97/82 1/56/82
f 12/98/83 1/56/84 16/97/82
f 1/56/48 12/98/48 5/58/48
f 7/70/48 5/58/48 12/98/48
f 5/58/48 7/70/48 15/93/48
f 14/94/48 5/58/48 15/93/48
f 5/58/48 14/94/48 6/52/48
f 10/90/48 6/52/48 14/94/48
f 6/52/48 10/90/48 9/99/48
f 8/100/48 6/52/48 9/99/48
f 6/52/48 8/100/85 3/54/85
f 11/21/85 3/54/85 8/100/85
f 3/54/86 11/21/86 18/22/86
f 13/24/86 3/54/86 18/22/86
f 3/54/86 13/24/86 1/56/86
f 17/25/86 1/56/86 13/24/86
f 47/42/47 25/37/47 50/39/47
f 83/36/47 50/39/47 25/37/47
f 81/51/87 80/52/87 82/53/87
f 22/54/49 82/53/49 80/52/49
s 1
f 25/35/88 81/36/89 82/37/90
f 81/36/89 25/35/88 83/38/41
f 81/36/89 83/38/41 84/39/91
f 50/40/92 84/39/91 83/38/41
s 0
f 84/49/49 42/50/49 81/43/49
f 24/44/49 81/43/49 42/50/49
s 1
f 50/40/92 47/41/44 84/39/91
f 85/42/93 84/39/91 47/41/44
s 0
f 85/66/49 63/13/49 84/63/49
f 62/3/49 84/63/49 63/13/49
s 1
f 85/42/93 47/41/44 82/37/90
f 25/35/88 82/37/90 47/41/44
s 0
f 82/62/94 29/20/94 85/59/94
f 53/17/95 85/59/95 29/20/95
s 1
f 88/33/96 40/34/97 89/32/98
f 93/80/99 89/32/98 40/34/97
s 0
f 87/55/47 21/56/47 89/57/47
f 86/58/47 89/57/47 21/56/47
s 1
f 90/29/100 55/31/101 89/32/98
f 88/33/96 89/32/98 55/31/101
s 0
f 89/45/47 23/46/47 90/47/47
f 44/48/47 90/47/47 23/46/47
s 1
f 90/29/100 60/30/102 55/31/101
f 60/30/102 90/29/100 94/79/103
s 0
f 91/64/47 92/5/47 94/65/47
f 61/9/104 94/65/104 92/5/104
s 1
f 93/80/99 40/34/97 94/79/103
f 60/30/102 94/79/103 40/34/97
s 0
f 94/60/47 52/28/47 93/61/47
f 27/23/47 93/61/47 52/28/47
